<svg width="54" height="37" xmlns="http://www.w3.org/2000/svg" xmlns:xlink="http://www.w3.org/1999/xlink"><defs><path id="a" d="M.004.02h14.908v14.91H.004z"/><path id="c" d="M0 .094h13.905V30H0z"/><path id="e" d="M.096.094H13.98V30H.096z"/></defs><g fill="none" fill-rule="evenodd"><g transform="translate(39)"><mask id="b" fill="#fff"><use xlink:href="#a"/></mask><path d="M11.695 3.238v11.69h3.217V3.239A3.217 3.217 0 0011.695.02H.004v3.218h11.69z" fill="#EF5025" mask="url(#b)"/></g><g transform="translate(0 7)"><mask id="d" fill="#fff"><use xlink:href="#c"/></mask><path d="M4.77 3.552H7c1.417 0 2.136.653 2.136 1.942V24.6c0 1.289-.719 1.943-2.136 1.943H4.77V3.552zM7 .094H0V30h6.999c3.215 0 6.906-.614 6.906-5.4V5.494c0-4.786-3.69-5.4-6.906-5.4z" fill="#1A4896" mask="url(#d)"/></g><path d="M20.761 10.468h1.996c1.415 0 2.132.656 2.132 1.949v8.286c0 1.293-.717 1.948-2.132 1.948H20.76V10.468zm8.89 9.23v-7.281C29.65 7.616 25.966 7 22.757 7H16v30h4.761V25.994h1.212L26.097 37H31l-4.362-11.57c2.053-.847 3.013-2.68 3.013-5.732z" fill="#1A4896"/><g transform="translate(32 7)"><mask id="f" fill="#fff"><use xlink:href="#e"/></mask><path d="M4.859 16.275h2.225c1.415 0 2.133.654 2.133 1.943V24.6c0 1.29-.718 1.942-2.133 1.942H4.859V16.275zM8.989 11c0 1.29-.719 1.943-2.135 1.943H4.86V3.552h1.995c1.416 0 2.134.653 2.134 1.942V11zm2.16 3.686c1.728-.824 2.602-2.396 2.602-4.687V5.494c0-4.786-3.686-5.4-6.897-5.4H.096V30h6.988c3.21 0 6.896-.614 6.896-5.4v-5.13c0-2.434-.928-4.008-2.83-4.784z" fill="#1A4896" mask="url(#f)"/></g><path d="M50.441 35.385c.101 0 .172-.024.214-.072a.303.303 0 00.062-.204c0-.168-.078-.251-.234-.251h-.124v.527h.082zm-.577-.803h.627c.228 0 .4.037.516.11.116.075.174.203.174.385a.57.57 0 01-.058.28.432.432 0 01-.214.172l.332.872h-.52l-.257-.783h-.105v.783h-.495v-1.82zm1.34 2.043c.19-.123.333-.284.426-.483.093-.198.14-.412.14-.642 0-.23-.047-.444-.14-.642a1.134 1.134 0 00-.425-.481c-.19-.122-.425-.183-.707-.183-.284 0-.522.061-.713.183a1.12 1.12 0 00-.424.479 1.507 1.507 0 00-.138.644c0 .23.046.444.138.642.091.199.233.36.426.483.192.123.43.185.71.185.28 0 .515-.062.707-.185zm-1.545.158a1.33 1.33 0 01-.499-.558A1.684 1.684 0 0149 35.5c0-.256.053-.498.16-.727.107-.228.273-.414.499-.558.225-.143.506-.215.843-.215.337 0 .617.072.841.215.224.144.39.33.496.558.107.229.161.471.161.727s-.053.498-.159.727a1.304 1.304 0 01-.496.558c-.225.143-.506.215-.843.215-.337 0-.618-.072-.843-.217z" fill="#1A4896"/></g></svg>