<svg xmlns="http://www.w3.org/2000/svg" viewBox="0 0 236.9 102.1"><defs><style>.cls-1{fill:#fff;}.cls-2{fill:#be1f24;}</style></defs><g id="Layer_2" data-name="Layer 2"><g id="Layer_1-2" data-name="Layer 1"><path class="cls-1" d="M11.91,96.16a6.56,6.56,0,0,1-1,1A6.43,6.43,0,0,1,9.69,98a7.2,7.2,0,0,1-1.54.56,8.24,8.24,0,0,1-1.84.2,7.31,7.31,0,0,1-2.58-.44,5.67,5.67,0,0,1-2-1.23A5.49,5.49,0,0,1,.46,95.17,6.39,6.39,0,0,1,0,92.7a9,9,0,0,1,.65-3.42,8.51,8.51,0,0,1,4.43-4.65A8,8,0,0,1,8.35,84a6.85,6.85,0,0,1,1.51.16,5.71,5.71,0,0,1,1.34.45,5.58,5.58,0,0,1,1.11.68,3.39,3.39,0,0,1,.8.9L11.5,87.31a3.27,3.27,0,0,0-.44-.6,3.18,3.18,0,0,0-.69-.54,3.66,3.66,0,0,0-.92-.4,4.18,4.18,0,0,0-1.16-.15,5.49,5.49,0,0,0-2.52.58,6.69,6.69,0,0,0-2,1.54,6.89,6.89,0,0,0-1.29,2.19A7.07,7.07,0,0,0,2,92.45a5.29,5.29,0,0,0,.29,1.79,4.19,4.19,0,0,0,.85,1.46,4.15,4.15,0,0,0,1.4,1A4.82,4.82,0,0,0,6.48,97a5.29,5.29,0,0,0,2.23-.48,5.4,5.4,0,0,0,1.89-1.49Z"/><path class="cls-1" d="M13.29,98.39H11l9.13-14.08H21.9l2.86,14.08H22.71L22,94.93H15.43Zm3.16-5.17h5.31l-1.19-6.69Z"/><path class="cls-1" d="M27.47,98.39H25.54L28,84.31h4a7.43,7.43,0,0,1,1.89.22,4.38,4.38,0,0,1,1.46.68,3,3,0,0,1,.94,1.1,3.25,3.25,0,0,1,.33,1.5,4.06,4.06,0,0,1-.3,1.61,3.71,3.71,0,0,1-.82,1.2,4.16,4.16,0,0,1-1.23.83,6.37,6.37,0,0,1-1.57.45l3,6.49H33.53l-2.8-6.29H28.56Zm1.37-7.9H31a8,8,0,0,0,1.42-.12A3.19,3.19,0,0,0,33.58,90a2.16,2.16,0,0,0,.78-.75A2.24,2.24,0,0,0,34.65,88a1.71,1.71,0,0,0-.79-1.6A4.17,4.17,0,0,0,31.72,86H29.66Z"/><path class="cls-1" d="M44.45,95.56h0L50,84.31h2.15l1.14,11.25h0L58.6,84.31h2.06L53.82,98.39h-2L50.58,87h0L44.91,98.39h-2L41.49,84.31h2Z"/><path class="cls-1" d="M59.17,98.39H56.89L66,84.31h1.77l2.86,14.08H68.6l-.68-3.46h-6.6Zm3.17-5.17h5.31l-1.2-6.69Z"/><path class="cls-1" d="M80.36,86.85a3,3,0,0,0-1.08-.92,3.2,3.2,0,0,0-1.53-.35,4.1,4.1,0,0,0-1,.14,2.92,2.92,0,0,0-1,.45A2.37,2.37,0,0,0,75,87a2.1,2.1,0,0,0-.29,1.14,1.64,1.64,0,0,0,.17.79,1.79,1.79,0,0,0,.46.6,3.18,3.18,0,0,0,.72.46,8.58,8.58,0,0,0,.91.39,12.91,12.91,0,0,1,1.45.63,5.52,5.52,0,0,1,1.17.81,3.66,3.66,0,0,1,.8,1.08,3.24,3.24,0,0,1,.28,1.4,4.45,4.45,0,0,1-.36,1.8,4,4,0,0,1-1.06,1.42,5.06,5.06,0,0,1-1.66.94,6.8,6.8,0,0,1-2.19.34,6.7,6.7,0,0,1-1.34-.14,7.07,7.07,0,0,1-1.28-.41,4.78,4.78,0,0,1-1.13-.68,3.68,3.68,0,0,1-.84-1l1.63-1.1a3.14,3.14,0,0,0,1.2,1.17,3.62,3.62,0,0,0,1.84.47,4.19,4.19,0,0,0,1.17-.17,3.35,3.35,0,0,0,1-.5,2.56,2.56,0,0,0,.71-.82,2.29,2.29,0,0,0,.27-1.14,2,2,0,0,0-.22-.94,2.45,2.45,0,0,0-.6-.69,4,4,0,0,0-.88-.53c-.33-.15-.68-.29-1-.43a11.61,11.61,0,0,1-1.19-.53,4.24,4.24,0,0,1-1-.72,3.15,3.15,0,0,1-.69-1,3.27,3.27,0,0,1-.26-1.38,4,4,0,0,1,.39-1.78,3.86,3.86,0,0,1,1.08-1.36,5,5,0,0,1,1.65-.86A6.6,6.6,0,0,1,77.93,84a5.69,5.69,0,0,1,2.3.46,3.68,3.68,0,0,1,1.64,1.29Z"/><path class="cls-1" d="M84.23,84.31h2l-1.05,5.9h7l1.06-5.9h1.94L92.61,98.39h-2l1.13-6.47h-7L83.7,98.39h-2Z"/><path class="cls-1" d="M108,86.85a2.84,2.84,0,0,0-1.07-.92,3.2,3.2,0,0,0-1.53-.35,4.18,4.18,0,0,0-1,.14,3,3,0,0,0-1,.45,2.4,2.4,0,0,0-.74.78,2.19,2.19,0,0,0-.29,1.14,1.77,1.77,0,0,0,.17.79,2,2,0,0,0,.47.6,3.18,3.18,0,0,0,.72.46,8.58,8.58,0,0,0,.91.39A12,12,0,0,1,106,91a5.35,5.35,0,0,1,1.18.81,3.46,3.46,0,0,1,.79,1.08,3.1,3.1,0,0,1,.29,1.4,4.3,4.3,0,0,1-.37,1.8,3.87,3.87,0,0,1-1.05,1.42,5.06,5.06,0,0,1-1.66.94,6.8,6.8,0,0,1-2.19.34,6.7,6.7,0,0,1-1.34-.14,6.83,6.83,0,0,1-1.28-.41,4.59,4.59,0,0,1-1.13-.68,3.5,3.5,0,0,1-.84-1l1.63-1.1a3.07,3.07,0,0,0,1.2,1.17,3.62,3.62,0,0,0,1.84.47,4.07,4.07,0,0,0,1.16-.17,3.29,3.29,0,0,0,1-.5,2.41,2.41,0,0,0,.7-.82,2.29,2.29,0,0,0,.27-1.14,1.89,1.89,0,0,0-.22-.94,2.26,2.26,0,0,0-.59-.69,4.19,4.19,0,0,0-.88-.53c-.33-.15-.68-.29-1-.43a12.85,12.85,0,0,1-1.2-.53,4.39,4.39,0,0,1-1-.72,3.35,3.35,0,0,1-.7-1,3.44,3.44,0,0,1-.25-1.38,4.18,4.18,0,0,1,.38-1.78,3.89,3.89,0,0,1,1.09-1.36,5,5,0,0,1,1.65-.86,6.51,6.51,0,0,1,2.07-.31,5.61,5.61,0,0,1,2.29.46,3.71,3.71,0,0,1,1.65,1.29Z"/><path class="cls-1" d="M113.81,98.39h-2l1.08-6.09-3.54-8h2.2l2.59,6.4,5.15-6.4h2.39l-6.85,8Z"/><path class="cls-1" d="M128.19,86.85a2.84,2.84,0,0,0-1.07-.92,3.2,3.2,0,0,0-1.53-.35,4.12,4.12,0,0,0-1,.14,2.87,2.87,0,0,0-1,.45,2.4,2.4,0,0,0-.74.78,2.19,2.19,0,0,0-.29,1.14,1.77,1.77,0,0,0,.17.79,1.82,1.82,0,0,0,.47.6,3.34,3.34,0,0,0,.71.46,8.78,8.78,0,0,0,.92.39,12,12,0,0,1,1.44.63,5.35,5.35,0,0,1,1.18.81,3.62,3.62,0,0,1,.79,1.08,3.24,3.24,0,0,1,.29,1.4,4.3,4.3,0,0,1-.37,1.8,4,4,0,0,1-1,1.42,5.06,5.06,0,0,1-1.66.94,6.8,6.8,0,0,1-2.19.34,6.7,6.7,0,0,1-1.34-.14,6.93,6.93,0,0,1-1.29-.41,4.72,4.72,0,0,1-1.12-.68,3.71,3.71,0,0,1-.85-1l1.63-1.1a3.17,3.17,0,0,0,1.21,1.17,3.62,3.62,0,0,0,1.84.47,4.12,4.12,0,0,0,1.16-.17,3.41,3.41,0,0,0,1-.5,2.53,2.53,0,0,0,.7-.82,2.29,2.29,0,0,0,.27-1.14,1.89,1.89,0,0,0-.22-.94,2.26,2.26,0,0,0-.59-.69,4.47,4.47,0,0,0-.88-.53c-.33-.15-.68-.29-1.05-.43a11.79,11.79,0,0,1-1.2-.53,4.39,4.39,0,0,1-1-.72,3.18,3.18,0,0,1-.7-1,3.43,3.43,0,0,1-.26-1.38,4,4,0,0,1,.39-1.78A4,4,0,0,1,122,85.12a5.12,5.12,0,0,1,1.66-.86,6.49,6.49,0,0,1,2.06-.31,5.66,5.66,0,0,1,2.3.46,3.63,3.63,0,0,1,1.64,1.29Z"/><path class="cls-1" d="M134,98.39h-1.95L134.24,86h-4.46l.3-1.71H140.9L140.6,86h-4.41Z"/><path class="cls-1" d="M141.34,96.68h7.3l-.3,1.71h-9.23l2.49-14.08h8.67L150,86h-6.76l-.74,4.25h6.45l-.3,1.65h-6.45Z"/><path class="cls-1" d="M157.47,95.17h0l6.16-10.86h3l-2.47,14.08h-1.93l2.09-11.76h-.06l-6.78,11.76H156.3l-2.61-11.76h0l-2.09,11.76h-1.87l2.49-14.08h3Z"/><path class="cls-1" d="M175.59,86.85a2.91,2.91,0,0,0-1.07-.92,3.26,3.26,0,0,0-1.54-.35,4.1,4.1,0,0,0-1,.14,3,3,0,0,0-1,.45,2.48,2.48,0,0,0-.73.78,2.19,2.19,0,0,0-.29,1.14,1.77,1.77,0,0,0,.17.79,1.82,1.82,0,0,0,.47.6,3.1,3.1,0,0,0,.71.46,8.78,8.78,0,0,0,.92.39,12.73,12.73,0,0,1,1.44.63,5.28,5.28,0,0,1,1.17.81,3.49,3.49,0,0,1,.8,1.08,3.24,3.24,0,0,1,.29,1.4,4.46,4.46,0,0,1-.37,1.8,4.11,4.11,0,0,1-1.05,1.42,5.11,5.11,0,0,1-1.67.94,6.78,6.78,0,0,1-2.18.34,6.88,6.88,0,0,1-1.35-.14A7.07,7.07,0,0,1,168,98.2a4.72,4.72,0,0,1-1.12-.68,3.71,3.71,0,0,1-.85-1l1.63-1.1a3.17,3.17,0,0,0,1.21,1.17,3.6,3.6,0,0,0,1.84.47,4.17,4.17,0,0,0,1.16-.17,3.24,3.24,0,0,0,1-.5,2.44,2.44,0,0,0,.71-.82,2.29,2.29,0,0,0,.27-1.14,1.89,1.89,0,0,0-.22-.94,2.45,2.45,0,0,0-.6-.69,4.11,4.11,0,0,0-.87-.53c-.33-.15-.69-.29-1.06-.43a11.61,11.61,0,0,1-1.19-.53,4.39,4.39,0,0,1-1-.72,3,3,0,0,1-.7-1,3.43,3.43,0,0,1-.26-1.38,4,4,0,0,1,.39-1.78,4,4,0,0,1,1.08-1.36,5.17,5.17,0,0,1,1.65-.86,6.6,6.6,0,0,1,2.07-.31,5.69,5.69,0,0,1,2.3.46,3.63,3.63,0,0,1,1.64,1.29Z"/><path class="cls-2" d="M95.86,9.23c-18.26,3.39-34.07,11-45.46,22-.17.14-.44-.09-.27-.27A86.7,86.7,0,0,1,74,13.44,99.61,99.61,0,0,1,95.86,9.23Z"/><path class="cls-2" d="M198.7,101.34a62.86,62.86,0,0,0,4.87-22.25C205,37.36,165,2,114.27.08,82.42-1.12,54.09,11.17,36.76,30.8c-.16.2.1.45.26.3C53.57,13.92,79.68,4.59,108.76,5.68c48.4,1.81,86.59,34.84,85.28,73.76a58.43,58.43,0,0,1-5.1,21.9c-.37,1,.44.73,4.2.73S198.29,102.26,198.7,101.34Z"/><path class="cls-2" d="M89.53,13.74A97,97,0,0,0,63.52,31c-.18.18.11.41.29.27C76.23,20.5,94.92,12.84,115,9.76A108.5,108.5,0,0,0,89.53,13.74Z"/><path class="cls-2" d="M205.55,101.34c-.38,1,.64.73,4.4.73s5.16.19,5.57-.73a61.9,61.9,0,0,0,5-22.25C221.84,39.92,185.93,6.36,138.65.81,174.82,10.5,192.09,31,198.92,42.25c7.94,11,12.29,23.75,11.83,37.19A57.6,57.6,0,0,1,205.55,101.34Z"/><path class="cls-2" d="M222.14,101.34c-.37,1,.87.73,4.64.73s4.71.19,5.13-.73a60.83,60.83,0,0,0,5-22.25c1.37-39-33.7-72.39-82-77.81,37.34,8.77,56.36,31,63.72,45.7a57.31,57.31,0,0,1,8.72,32.46A56.15,56.15,0,0,1,222.14,101.34Z"/><path class="cls-1" d="M13.53,76.53H3.29L8.76,54.71H1.27l2.18-8.65H28.67l-2.18,8.65H19Z"/><path class="cls-1" d="M25.36,61.12a20.13,20.13,0,0,1,2.94-6.6,21.29,21.29,0,0,1,4.81-5,21.57,21.57,0,0,1,6.16-3.18,22.07,22.07,0,0,1,7-1.13,17.23,17.23,0,0,1,6.43,1.13,11.37,11.37,0,0,1,4.58,3.18,10.63,10.63,0,0,1,2.31,5,15.42,15.42,0,0,1-.36,6.6,20.82,20.82,0,0,1-3,6.67,21.88,21.88,0,0,1-4.86,5.15,22.55,22.55,0,0,1-6.21,3.29,21.55,21.55,0,0,1-7,1.16,16.83,16.83,0,0,1-6.43-1.16A10.73,10.73,0,0,1,25,67.79,16.07,16.07,0,0,1,25.36,61.12Zm10.88,0A7.93,7.93,0,0,0,36,63.88,5.16,5.16,0,0,0,36.71,66a4,4,0,0,0,1.57,1.4,5.17,5.17,0,0,0,2.28.49,6.8,6.8,0,0,0,2.51-.49A8.24,8.24,0,0,0,45.34,66a9.23,9.23,0,0,0,1.81-2.15,10.12,10.12,0,0,0,1.15-2.76,7.73,7.73,0,0,0,.22-2.69,4.34,4.34,0,0,0-.75-2.06,4.27,4.27,0,0,0-1.59-1.32,5.23,5.23,0,0,0-2.27-.47,7.17,7.17,0,0,0-2.53.47,8,8,0,0,0-2.24,1.32,8.12,8.12,0,0,0-1.77,2.06A9.46,9.46,0,0,0,36.24,61.12Z"/><path class="cls-1" d="M70.56,59.31,66.71,76.53H57.16L64.8,46.06H78.2l1.4,16.39h.22l8.9-16.39h13.82L94.9,76.53h-10l4.6-17.13-.25,0-10,17.17H72.05L70.77,59.31Z"/><path class="cls-1" d="M111.43,59.31l-3.84,17.22H98l7.65-30.47h13.4l1.4,16.39h.21l8.9-16.39h13.83l-7.65,30.47h-10l4.6-17.13-.25,0-10,17.17h-7.23l-1.27-17.22Z"/><path class="cls-1" d="M158.8,76.53H148.56l3.13-12.48-7-18h12.36L159.64,55l6.85-8.95h12l-16.6,18Z"/><path class="cls-1" d="M234.36,101a.9.9,0,0,1,.09-.4,1,1,0,0,1,.56-.56.91.91,0,0,1,.41-.09.9.9,0,0,1,.4.09,1.11,1.11,0,0,1,.34.22,1.13,1.13,0,0,1,.23.34,1.06,1.06,0,0,1,.08.4,1.11,1.11,0,0,1-.08.41,1,1,0,0,1-.23.33,1,1,0,0,1-.34.22.9.9,0,0,1-.4.08A.91.91,0,0,1,235,102a1.06,1.06,0,0,1-.65-1Zm.17,0a.84.84,0,0,0,.07.35.87.87,0,0,0,.19.28.77.77,0,0,0,.28.19.81.81,0,0,0,.35.07.8.8,0,0,0,.34-.07.77.77,0,0,0,.28-.19.87.87,0,0,0,.19-.28.84.84,0,0,0,.07-.35.8.8,0,0,0-.07-.34.9.9,0,0,0-.47-.47.8.8,0,0,0-.34-.07.81.81,0,0,0-.35.07.9.9,0,0,0-.47.47A.8.8,0,0,0,234.53,101Zm.47-.59h.42a.41.41,0,0,1,.16,0,.35.35,0,0,1,.14.06.24.24,0,0,1,.1.1.29.29,0,0,1,0,.16.33.33,0,0,1-.07.21.31.31,0,0,1-.2.11l.32.52h-.26l-.28-.49h-.15v.49H235Zm.39.52a.47.47,0,0,0,.17,0,.13.13,0,0,0,.09-.14.13.13,0,0,0-.08-.13.41.41,0,0,0-.16,0h-.19v.34Z"/></g></g></svg>